<svg width="86" height="92" viewBox="0 0 86 92" fill="none" xmlns="http://www.w3.org/2000/svg">
<g clip-path="url(#clip0_555_260)">
<path d="M43.7154 77.0881C39.5282 73.8202 35.3382 70.556 31.1706 67.2632C33.5084 63.1413 35.3822 58.7794 36.747 54.2386C37.0067 53.3742 35.9739 52.5561 35.198 53.0486C30.5459 56.0005 25.9215 58.9931 21.299 61.9904C18.3312 58.2305 15.0845 54.7139 11.5967 51.4277C10.826 50.7015 9.83674 51.4564 9.96207 52.3787C10.3606 55.313 10.759 58.2472 11.1575 61.1814C11.4656 63.4497 11.7201 65.7681 12.4702 67.9292C7.90795 68.6669 3.53086 72.0248 0.227232 75.0757C-0.41235 75.6667 0.109074 76.6942 0.909866 76.7228C5.69644 76.8921 10.4447 76.6162 15.1777 75.9445C16.3507 81.0776 17.8523 86.0936 19.7098 91.0269C20.1437 92.1796 21.476 92.3092 22.193 91.351C25.5914 86.8089 28.276 81.9186 29.9513 76.5086C34.1394 77.3893 38.3266 78.2739 42.5171 79.145C43.5906 79.3683 44.7712 77.9124 43.7154 77.0881Z" fill="#FFC909"/>
<path d="M45.9441 25.6522C44.732 22.4172 43.5174 19.1832 42.3248 15.941C45.0228 14.4483 47.5457 12.6645 49.8462 10.609C50.2844 10.2179 49.9892 9.41322 49.3913 9.42278C45.8069 9.48064 42.2239 9.57005 38.6404 9.66328C38.272 6.56935 37.6664 3.51605 36.8489 0.508177C36.6681 -0.156414 35.863 -0.0736986 35.619 0.480924C34.8426 2.24424 34.0662 4.00756 33.2898 5.7704C32.6895 7.13353 32.0427 8.50622 31.7241 9.95972C28.9424 8.81939 25.3723 9.19568 22.5021 9.76656C21.9467 9.877 21.8864 10.6243 22.3208 10.9121C24.9188 12.6315 27.647 14.0912 30.5009 15.3262C29.4069 18.5722 28.5343 21.865 27.8876 25.2329C27.7364 26.0199 28.4315 26.5444 29.1548 26.2561C32.5842 24.8906 35.7362 23.089 38.505 20.6563C40.529 22.5674 42.5515 24.4798 44.5798 26.3861C45.0998 26.8748 46.2498 26.4679 45.9441 25.6522Z" fill="#FFC909"/>
<path d="M85.7384 51.3104C82.5366 50.0089 79.3344 48.7103 76.1408 47.3897C76.8708 44.3948 77.2683 41.3319 77.3152 38.2485C77.3243 37.6614 76.5321 37.3329 76.1341 37.779C73.7475 40.4527 71.3853 43.1469 69.0255 45.8435C66.4997 44.0175 63.8424 42.3934 61.0755 40.9561C60.4641 40.6387 59.9791 41.2865 60.2216 41.8416C60.9927 43.6073 61.7639 45.373 62.535 47.1383C63.1311 48.5033 63.7027 49.9085 64.5561 51.1282C61.8323 52.4 59.6897 55.2788 58.1646 57.7751C57.8695 58.2584 58.3784 58.8092 58.8846 58.6845C61.9102 57.9405 64.8331 56.924 67.6756 55.6632C69.3221 58.6672 71.1538 61.5398 73.1936 64.2976C73.67 64.9421 74.5268 64.7867 74.8052 64.0595C76.1245 60.6132 76.9349 57.076 77.022 53.3926C79.7999 53.1999 82.5773 53.0096 85.3547 52.8107C86.0656 52.7596 86.5458 51.6388 85.7384 51.3104Z" fill="#FFC909"/>
</g>
<defs>
<clipPath id="clip0_555_260">
<rect width="86" height="92" fill="white"/>
</clipPath>
</defs>
</svg>
