<svg width="1340" height="660" viewBox="0 0 1340 660" fill="none" xmlns="http://www.w3.org/2000/svg">
<path d="M172.772 346H167.133V315.3H172.772V334.659L181.119 324.077H187.559L180.278 333.224L187.559 346H181.119L176.669 338.022L172.772 343.19V346Z" fill="#710A85" fill-opacity="0.15"/>
<path d="M280.91 289H275.045V268C275.045 267.59 274.963 267.207 274.799 266.852C274.648 266.496 274.437 266.188 274.163 265.929C273.903 265.655 273.596 265.443 273.24 265.293C272.885 265.143 272.502 265.067 272.092 265.067C271.682 265.067 271.299 265.143 270.943 265.293C270.588 265.443 270.273 265.655 270 265.929C269.74 266.188 269.535 266.496 269.385 266.852C269.234 267.207 269.159 267.59 269.159 268V289H263.273V268C263.273 267.59 263.198 267.207 263.048 266.852C262.897 266.496 262.686 266.188 262.412 265.929C262.152 265.655 261.845 265.443 261.489 265.293C261.134 265.143 260.751 265.067 260.341 265.067C259.931 265.067 259.548 265.143 259.192 265.293C258.837 265.443 258.522 265.655 258.249 265.929C257.989 266.188 257.784 266.496 257.634 266.852C257.483 267.207 257.408 267.59 257.408 268V289H251.522V268C251.522 266.783 251.748 265.642 252.199 264.575C252.664 263.495 253.293 262.559 254.086 261.766C254.893 260.959 255.829 260.33 256.896 259.879C257.976 259.414 259.124 259.182 260.341 259.182C261.435 259.182 262.487 259.38 263.499 259.776C264.511 260.159 265.42 260.72 266.227 261.458C267.033 260.72 267.936 260.159 268.934 259.776C269.945 259.38 270.998 259.182 272.092 259.182C273.309 259.182 274.45 259.414 275.517 259.879C276.597 260.33 277.533 260.959 278.326 261.766C279.133 262.559 279.762 263.495 280.213 264.575C280.678 265.642 280.91 266.783 280.91 268V289Z" fill="#710A85" fill-opacity="0.15"/>
<path d="M629.291 499.296C629.291 500.649 629.113 501.955 628.758 503.213C628.416 504.457 627.924 505.626 627.281 506.72C626.639 507.8 625.873 508.791 624.984 509.693C624.096 510.582 623.104 511.348 622.011 511.99C620.917 512.633 619.741 513.132 618.483 513.487C617.239 513.829 615.94 514 614.587 514H605.728V484.592H614.587C615.94 484.592 617.239 484.77 618.483 485.125C619.741 485.467 620.917 485.959 622.011 486.602C623.104 487.244 624.096 488.017 624.984 488.919C625.873 489.808 626.639 490.799 627.281 491.893C627.924 492.973 628.416 494.142 628.758 495.399C629.113 496.644 629.291 497.942 629.291 499.296ZM623.405 499.296C623.405 498.079 623.173 496.938 622.708 495.871C622.257 494.805 621.628 493.875 620.821 493.082C620.028 492.275 619.092 491.64 618.012 491.175C616.945 490.71 615.804 490.478 614.587 490.478H611.654V508.114H614.587C615.804 508.114 616.945 507.889 618.012 507.438C619.092 506.973 620.028 506.344 620.821 505.551C621.628 504.744 622.257 503.808 622.708 502.741C623.173 501.661 623.405 500.513 623.405 499.296Z" fill="#710A85" fill-opacity="0.15"/>
<path d="M806.25 73.1816C806.25 74.3984 806.018 75.54 805.553 76.6064C805.088 77.6729 804.452 78.6094 803.646 79.416C802.853 80.209 801.923 80.8379 800.856 81.3027C799.79 81.7676 798.648 82 797.432 82H782.728V52.5918H797.432C798.648 52.5918 799.79 52.8242 800.856 53.2891C801.923 53.7539 802.853 54.3896 803.646 55.1963C804.452 55.9893 805.088 56.9189 805.553 57.9854C806.018 59.0518 806.25 60.1934 806.25 61.4102C806.25 61.957 806.175 62.5176 806.024 63.0918C805.874 63.666 805.662 64.2197 805.389 64.7529C805.115 65.2861 804.787 65.7715 804.404 66.209C804.021 66.6465 803.598 67.0088 803.133 67.2959C803.611 67.5557 804.042 67.9111 804.425 68.3623C804.808 68.7998 805.136 69.2852 805.409 69.8184C805.683 70.3516 805.888 70.9121 806.024 71.5C806.175 72.0742 806.25 72.6348 806.25 73.1816ZM788.613 76.1143H797.432C797.842 76.1143 798.225 76.0391 798.58 75.8887C798.936 75.7383 799.243 75.5332 799.503 75.2734C799.776 75 799.988 74.6855 800.139 74.3301C800.289 73.9746 800.364 73.5918 800.364 73.1816C800.364 72.7715 800.289 72.3887 800.139 72.0332C799.988 71.6777 799.776 71.3701 799.503 71.1104C799.243 70.8369 798.936 70.625 798.58 70.4746C798.225 70.3242 797.842 70.249 797.432 70.249H788.613V76.1143ZM788.613 64.3633H797.432C797.842 64.3633 798.225 64.2881 798.58 64.1377C798.936 63.9873 799.243 63.7822 799.503 63.5225C799.776 63.249 799.988 62.9346 800.139 62.5791C800.289 62.21 800.364 61.8203 800.364 61.4102C800.364 61 800.289 60.6172 800.139 60.2617C799.988 59.9062 799.776 59.5986 799.503 59.3389C799.243 59.0654 798.936 58.8535 798.58 58.7031C798.225 58.5527 797.842 58.4775 797.432 58.4775H788.613V64.3633Z" fill="#710A85" fill-opacity="0.15"/>
<path d="M585.358 218.823C585.358 220.464 585.064 221.995 584.477 223.417C583.889 224.825 583.089 226.049 582.077 227.088C581.065 228.113 579.876 228.927 578.509 229.528C577.155 230.116 575.699 230.41 574.141 230.41C572.596 230.41 571.14 230.116 569.772 229.528C568.419 228.927 567.229 228.113 566.204 227.088C565.192 226.049 564.393 224.825 563.805 223.417C563.217 221.995 562.923 220.464 562.923 218.823C562.923 217.155 563.217 215.61 563.805 214.188C564.393 212.767 565.192 211.543 566.204 210.518C567.229 209.479 568.419 208.665 569.772 208.077C571.14 207.489 572.596 207.195 574.141 207.195C575.699 207.195 577.155 207.476 578.509 208.036C579.876 208.583 581.065 209.369 582.077 210.395C583.089 211.406 583.889 212.63 584.477 214.065C585.064 215.487 585.358 217.073 585.358 218.823ZM579.719 218.823C579.719 217.921 579.568 217.107 579.268 216.383C578.98 215.645 578.584 215.016 578.078 214.496C577.572 213.963 576.978 213.56 576.294 213.286C575.624 212.999 574.906 212.855 574.141 212.855C573.375 212.855 572.65 212.999 571.967 213.286C571.297 213.56 570.709 213.963 570.203 214.496C569.711 215.016 569.321 215.645 569.034 216.383C568.747 217.107 568.604 217.921 568.604 218.823C568.604 219.671 568.747 220.457 569.034 221.182C569.321 221.906 569.711 222.535 570.203 223.068C570.709 223.602 571.297 224.025 571.967 224.34C572.65 224.641 573.375 224.791 574.141 224.791C574.906 224.791 575.624 224.647 576.294 224.36C576.978 224.073 577.572 223.67 578.078 223.15C578.584 222.631 578.98 222.002 579.268 221.264C579.568 220.525 579.719 219.712 579.719 218.823Z" fill="#710A85" fill-opacity="0.15"/>
<path d="M645.772 255.367H640.133V225.036H641.486L643.722 227.682C644.228 227.203 644.781 226.752 645.383 226.328C645.984 225.904 646.606 225.542 647.249 225.241C647.905 224.927 648.582 224.681 649.279 224.503C649.977 224.325 650.681 224.236 651.392 224.236C652.937 224.236 654.386 224.517 655.739 225.077C657.106 225.624 658.296 226.403 659.308 227.415C660.333 228.427 661.14 229.65 661.728 231.086C662.315 232.508 662.609 234.087 662.609 235.823C662.609 237.628 662.315 239.255 661.728 240.704C661.14 242.14 660.333 243.363 659.308 244.375C658.296 245.373 657.106 246.139 655.739 246.672C654.386 247.205 652.937 247.472 651.392 247.472C650.899 247.472 650.407 247.417 649.915 247.308C649.437 247.198 648.958 247.055 648.479 246.877C648.015 246.686 647.55 246.474 647.085 246.241C646.634 246.009 646.196 245.77 645.772 245.523V255.367ZM656.99 235.823C656.99 234.894 656.84 234.06 656.539 233.321C656.252 232.583 655.855 231.961 655.35 231.455C654.844 230.936 654.249 230.539 653.565 230.266C652.882 229.992 652.157 229.855 651.392 229.855C650.626 229.855 649.901 229.992 649.218 230.266C648.548 230.539 647.96 230.936 647.454 231.455C646.948 231.961 646.545 232.583 646.244 233.321C645.957 234.06 645.813 234.894 645.813 235.823C645.813 236.712 645.957 237.525 646.244 238.264C646.545 239.002 646.948 239.631 647.454 240.15C647.96 240.67 648.548 241.073 649.218 241.36C649.901 241.647 650.626 241.791 651.392 241.791C652.157 241.791 652.882 241.647 653.565 241.36C654.249 241.073 654.844 240.67 655.35 240.15C655.855 239.631 656.252 239.002 656.539 238.264C656.84 237.525 656.99 236.712 656.99 235.823Z" fill="#710A85" fill-opacity="0.15"/>
<path d="M1199.06 501.05C1199.06 499.409 1198.73 497.827 1198.09 496.304C1197.47 494.751 1196.62 493.389 1195.54 492.217C1194.46 491.016 1193.18 490.063 1191.72 489.36C1190.28 488.628 1188.74 488.262 1187.1 488.262C1185.46 488.262 1183.91 488.54 1182.45 489.097C1181.01 489.653 1179.75 490.474 1178.67 491.558C1177.61 492.642 1176.78 493.989 1176.16 495.601C1175.55 497.183 1175.24 498.999 1175.24 501.05C1175.24 503.013 1175.55 504.785 1176.16 506.367C1176.78 507.92 1177.61 509.253 1178.67 510.366C1179.75 511.479 1181.01 512.344 1182.45 512.959C1183.91 513.545 1185.46 513.838 1187.1 513.838C1188.74 513.838 1190.28 513.486 1191.72 512.783C1193.18 512.051 1194.46 511.099 1195.54 509.927C1196.62 508.726 1197.47 507.363 1198.09 505.84C1198.73 504.287 1199.06 502.69 1199.06 501.05ZM1211.14 519.067C1211.14 522.378 1210.51 525.483 1209.25 528.384C1207.99 531.284 1206.26 533.818 1204.07 535.986C1201.9 538.154 1199.35 539.868 1196.42 541.128C1193.52 542.388 1190.41 543.018 1187.1 543.018L1181.08 542.93V530.933L1187.02 531.021C1188.89 531.021 1190.49 530.771 1191.81 530.273C1193.12 529.805 1194.24 529.146 1195.15 528.296C1196.05 527.476 1196.77 526.523 1197.3 525.439C1197.86 524.355 1198.29 523.213 1198.62 522.012C1198.15 522.773 1197.47 523.403 1196.6 523.901C1195.72 524.37 1194.74 524.751 1193.65 525.044C1192.6 525.366 1191.48 525.586 1190.31 525.703C1189.17 525.82 1188.1 525.879 1187.1 525.879C1183.79 525.879 1180.67 525.308 1177.74 524.165C1174.84 523.022 1172.29 521.396 1170.1 519.287C1167.93 517.148 1166.21 514.541 1164.96 511.465C1163.7 508.389 1163.07 504.917 1163.07 501.05C1163.07 497.505 1163.7 494.209 1164.96 491.162C1166.21 488.115 1167.93 485.479 1170.1 483.252C1172.29 481.025 1174.84 479.282 1177.74 478.022C1180.67 476.763 1183.79 476.133 1187.1 476.133C1188.63 476.133 1190.14 476.323 1191.63 476.704C1193.12 477.085 1194.57 477.612 1195.98 478.286C1197.39 478.96 1198.72 479.751 1199.98 480.659C1201.27 481.567 1202.47 482.549 1203.58 483.604L1208.24 478.022H1211.14V519.067Z" fill="white" fill-opacity="0.1"/>
<path d="M263.275 151H250.361L240.119 133.818L229.84 151H217L233.328 124.393L217 97.7852H229.84L240.119 114.967L250.361 97.7852H263.275L246.947 124.393L263.275 151Z" fill="white" fill-opacity="0.1"/>
<path d="M41.8594 280.264C41.8594 282.861 41.4017 285.199 40.4863 287.277C39.571 289.355 38.3464 291.112 36.8125 292.547C35.2786 293.982 33.4974 295.083 31.4688 295.85C29.4648 296.617 27.362 297 25.1602 297H3.71094V286.35H25.1602C25.8776 286.35 26.5951 286.238 27.3125 286.016C28.0547 285.793 28.7103 285.434 29.2793 284.939C29.873 284.445 30.3431 283.814 30.6895 283.047C31.0605 282.28 31.2461 281.352 31.2461 280.264C31.2461 279.274 31.0605 278.408 30.6895 277.666C30.3431 276.899 29.873 276.268 29.2793 275.773C28.7103 275.254 28.0547 274.87 27.3125 274.623C26.5951 274.351 25.8776 274.215 25.1602 274.215H3.71094L6.82812 243.785H39.6699V254.436H16.4023L15.4375 263.564H25.1602C27.362 263.564 29.4648 263.948 31.4688 264.715C33.4974 265.482 35.2786 266.595 36.8125 268.055C38.3464 269.49 39.571 271.246 40.4863 273.324C41.4017 275.378 41.8594 277.691 41.8594 280.264Z" fill="white" fill-opacity="0.1"/>
<path d="M817.249 311H811.65V294.614H808.923V289.036H811.65V287.99C811.65 286.637 811.903 285.365 812.409 284.176C812.929 282.986 813.633 281.954 814.521 281.079C815.424 280.19 816.47 279.493 817.659 278.987C818.849 278.468 820.12 278.208 821.474 278.208H825.678V283.786H821.474C820.872 283.786 820.312 283.896 819.792 284.114C819.286 284.319 818.842 284.613 818.459 284.996C818.09 285.365 817.796 285.81 817.577 286.329C817.358 286.835 817.249 287.389 817.249 287.99V289.036H824.119V294.614H817.249V311Z" fill="#710A85" fill-opacity="0.15"/>
<path d="M1234.37 185L1226 163.036H1232.38L1237.18 176.735L1241.96 163.036H1248.35L1239.99 185H1234.37Z" fill="#710A85" fill-opacity="0.15"/>
<path d="M1328.15 358C1326.79 358 1325.52 357.747 1324.33 357.241C1323.14 356.722 1322.1 356.018 1321.19 355.129C1320.3 354.227 1319.6 353.181 1319.08 351.991C1318.58 350.802 1318.32 349.53 1318.32 348.177V341.655H1315.59V336.077H1318.32V327.3H1323.9V336.077H1332.39V341.655H1323.9V348.177C1323.9 348.765 1324.01 349.318 1324.23 349.838C1324.45 350.344 1324.75 350.788 1325.13 351.171C1325.51 351.554 1325.96 351.861 1326.48 352.094C1327 352.312 1327.56 352.422 1328.15 352.422H1332.39V358H1328.15Z" fill="#710A85" fill-opacity="0.15"/>
<path d="M1337.64 52.1816C1337.64 53.3984 1337.41 54.54 1336.94 55.6064C1336.48 56.6729 1335.84 57.6094 1335.04 58.416C1334.24 59.209 1333.31 59.8379 1332.25 60.3027C1331.18 60.7676 1330.04 61 1328.82 61H1317.05V55.1143H1328.82C1329.23 55.1143 1329.62 55.0391 1329.97 54.8887C1330.33 54.7383 1330.63 54.5332 1330.89 54.2734C1331.17 54 1331.38 53.6855 1331.53 53.3301C1331.68 52.9746 1331.75 52.5918 1331.75 52.1816C1331.75 51.7715 1331.68 51.3887 1331.53 51.0332C1331.38 50.6777 1331.17 50.3701 1330.89 50.1104C1330.63 49.8369 1330.33 49.625 1329.97 49.4746C1329.62 49.3242 1329.23 49.249 1328.82 49.249H1320.8V43.3633H1328.82C1329.23 43.3633 1329.62 43.2881 1329.97 43.1377C1330.33 42.9873 1330.63 42.7822 1330.89 42.5225C1331.17 42.249 1331.38 41.9346 1331.53 41.5791C1331.68 41.21 1331.75 40.8203 1331.75 40.4102C1331.75 40 1331.68 39.6172 1331.53 39.2617C1331.38 38.9062 1331.17 38.5986 1330.89 38.3389C1330.63 38.0654 1330.33 37.8535 1329.97 37.7031C1329.62 37.5527 1329.23 37.4775 1328.82 37.4775H1317.05V31.5918H1328.82C1330.04 31.5918 1331.18 31.8242 1332.25 32.2891C1333.31 32.7539 1334.24 33.3896 1335.04 34.1963C1335.84 34.9893 1336.48 35.9189 1336.94 36.9854C1337.41 38.0518 1337.64 39.1934 1337.64 40.4102C1337.64 41.4902 1337.44 42.543 1337.05 43.5684C1336.65 44.5801 1336.09 45.4893 1335.36 46.2959C1336.09 47.1025 1336.65 48.0186 1337.05 49.0439C1337.44 50.0557 1337.64 51.1016 1337.64 52.1816Z" fill="#710A85" fill-opacity="0.15"/>
<path d="M57.4863 32.5918C57.4863 33.918 57.1855 35.1416 56.584 36.2627C55.9824 37.3838 55.1553 38.3545 54.1025 39.1748C53.0635 39.9814 51.8467 40.6104 50.4521 41.0615C49.0576 41.5264 47.5674 41.7588 45.9814 41.7588C44.3955 41.7588 42.9053 41.5264 41.5107 41.0615C40.1162 40.6104 38.8926 39.9814 37.8398 39.1748C36.8008 38.3545 35.9805 37.3838 35.3789 36.2627C34.7773 35.1416 34.4766 33.918 34.4766 32.5918C34.4766 31.8262 34.5791 31.0811 34.7842 30.3564C34.9893 29.6182 35.2832 28.9277 35.666 28.2852C36.0625 27.6426 36.5342 27.0547 37.0811 26.5215C37.6279 25.9746 38.2432 25.5098 38.9268 25.127C38.5029 24.7578 38.1201 24.334 37.7783 23.8555C37.4502 23.377 37.1631 22.8711 36.917 22.3379C36.6846 21.8047 36.5068 21.2578 36.3838 20.6973C36.2607 20.123 36.1992 19.5557 36.1992 18.9951C36.1992 17.8467 36.4521 16.7734 36.958 15.7754C37.4775 14.7637 38.1816 13.8818 39.0703 13.1299C39.959 12.3643 40.998 11.7627 42.1875 11.3252C43.377 10.8877 44.6416 10.6689 45.9814 10.6689C47.335 10.6689 48.6064 10.8877 49.7959 11.3252C50.9854 11.7627 52.0244 12.3643 52.9131 13.1299C53.8154 13.8818 54.5195 14.7637 55.0254 15.7754C55.5449 16.7734 55.8047 17.8467 55.8047 18.9951C55.8047 19.5557 55.7363 20.123 55.5996 20.6973C55.4766 21.2578 55.2988 21.8115 55.0664 22.3584C54.834 22.8916 54.5469 23.3975 54.2051 23.876C53.877 24.3545 53.501 24.7852 53.0771 25.168C53.7471 25.5508 54.3555 26.0088 54.9023 26.542C55.4492 27.0752 55.9141 27.6631 56.2969 28.3057C56.6797 28.9482 56.9736 29.6318 57.1787 30.3564C57.3838 31.0811 57.4863 31.8262 57.4863 32.5918ZM50.042 19.6309C50.042 19.1523 49.9326 18.708 49.7139 18.2979C49.5088 17.874 49.2217 17.5049 48.8525 17.1904C48.4971 16.876 48.0732 16.6299 47.5811 16.4521C47.0889 16.2744 46.5693 16.1855 46.0225 16.1855C45.4619 16.1855 44.9355 16.2744 44.4434 16.4521C43.9512 16.6299 43.5205 16.876 43.1514 17.1904C42.7959 17.5049 42.5088 17.874 42.29 18.2979C42.085 18.708 41.9824 19.1523 41.9824 19.6309C41.9824 20.1094 42.085 20.5537 42.29 20.9639C42.5088 21.374 42.7959 21.7295 43.1514 22.0303C43.5205 22.3311 43.9512 22.5703 44.4434 22.748C44.9355 22.9258 45.4619 23.0146 46.0225 23.0146C46.5693 23.0146 47.0889 22.9258 47.5811 22.748C48.0732 22.5703 48.4971 22.3311 48.8525 22.0303C49.2217 21.7295 49.5088 21.374 49.7139 20.9639C49.9326 20.5537 50.042 20.1094 50.042 19.6309ZM51.6416 32.4277C51.6416 31.7715 51.4912 31.1631 51.1904 30.6025C50.9033 30.0283 50.5 29.5293 49.9805 29.1055C49.4746 28.6816 48.873 28.3467 48.1758 28.1006C47.4922 27.8545 46.7607 27.7314 45.9814 27.7314C45.2021 27.7314 44.4707 27.8545 43.7871 28.1006C43.1035 28.3467 42.502 28.6816 41.9824 29.1055C41.4766 29.5293 41.0732 30.0283 40.7725 30.6025C40.4854 31.1631 40.3418 31.7715 40.3418 32.4277C40.3418 33.084 40.4854 33.6855 40.7725 34.2324C41.0732 34.7793 41.4766 35.251 41.9824 35.6475C42.502 36.0439 43.1035 36.3584 43.7871 36.5908C44.4707 36.8096 45.2021 36.9189 45.9814 36.9189C46.7607 36.9189 47.4922 36.8096 48.1758 36.5908C48.873 36.3584 49.4746 36.0439 49.9805 35.6475C50.5 35.251 50.9033 34.7793 51.1904 34.2324C51.4912 33.6855 51.6416 33.084 51.6416 32.4277Z" fill="#710A85" fill-opacity="0.15"/>
<path d="M89.6465 540.296C89.6465 537.028 89.0996 534.602 88.0059 533.016C86.9258 531.43 85.415 530.637 83.4736 530.637C81.5459 530.637 80.0488 531.423 78.9824 532.995C77.916 534.567 77.3828 537.001 77.3828 540.296C77.3828 543.563 77.916 545.99 78.9824 547.576C80.0488 549.162 81.5459 549.955 83.4736 549.955C84.4443 549.955 85.3125 549.764 86.0781 549.381C86.8438 548.984 87.4863 548.39 88.0059 547.597C88.5391 546.804 88.9424 545.806 89.2158 544.603C89.5029 543.386 89.6465 541.95 89.6465 540.296ZM95.2451 540.296C95.2451 543.085 94.9375 545.443 94.3223 547.371C93.707 549.299 92.8662 550.857 91.7998 552.047C90.7334 553.236 89.4824 554.098 88.0469 554.631C86.625 555.15 85.1006 555.41 83.4736 555.41C81.8467 555.41 80.3154 555.144 78.8799 554.61C77.458 554.063 76.2139 553.195 75.1475 552.006C74.0947 550.803 73.2607 549.244 72.6455 547.33C72.0303 545.402 71.7227 543.058 71.7227 540.296C71.7227 537.507 72.0303 535.155 72.6455 533.241C73.2607 531.313 74.0947 529.755 75.1475 528.565C76.2139 527.376 77.458 526.515 78.8799 525.981C80.3154 525.448 81.8467 525.182 83.4736 525.182C85.1006 525.182 86.625 525.455 88.0469 526.002C89.4824 526.535 90.7334 527.403 91.7998 528.606C92.8662 529.81 93.707 531.368 94.3223 533.282C94.9375 535.196 95.2451 537.534 95.2451 540.296Z" fill="#710A85" fill-opacity="0.15"/>
</svg>
