<svg width="1316" height="281" viewBox="0 0 1316 281" fill="none" xmlns="http://www.w3.org/2000/svg">
<g opacity="0.5" clip-path="url(#clip0_555_171)">
<path d="M1159.76 159.511C1158.66 155.947 1154.92 153.978 1151.36 155.081L1148.75 155.89L1142.33 157.876L1146.3 170.706L1155.33 167.912C1158.89 166.809 1160.86 163.075 1159.76 159.511Z" stroke="black" stroke-width="3" stroke-miterlimit="10"/>
<path d="M1153.18 147.49C1152.07 143.926 1148.34 141.957 1144.78 143.06L1138.36 145.045L1142.33 157.876L1148.75 155.89C1152.31 154.787 1154.28 151.054 1153.18 147.49Z" stroke="black" stroke-width="3" stroke-miterlimit="10"/>
<path d="M1132.33 189.089L1183.66 173.205L1167.77 121.883L1116.45 137.767L1132.33 189.089ZM1142.33 157.876L1138.36 145.046L1144.78 143.06C1148.34 141.957 1152.07 143.926 1153.18 147.49C1154.28 151.054 1152.31 154.787 1148.75 155.89L1151.36 155.082C1154.92 153.978 1158.66 155.947 1159.76 159.511C1160.86 163.075 1158.89 166.809 1155.33 167.912L1146.3 170.706L1142.33 157.876Z" stroke="black" stroke-width="3" stroke-miterlimit="10"/>
<path d="M1220.89 139.158C1222.22 143.435 1219.84 147.946 1215.56 149.27C1211.29 150.594 1206.77 148.215 1205.45 143.938L1202.29 133.721C1200.96 129.445 1203.34 124.933 1207.62 123.61C1211.9 122.286 1216.41 124.665 1217.73 128.942M1177.99 118.721L1193.87 170.042L1245.19 154.159L1229.31 102.837L1177.99 118.721Z" stroke="black" stroke-width="3" stroke-miterlimit="10"/>
<path d="M1160.42 70.7856L1155.19 72.4034L1155.87 91.8496L1170.84 87.2168L1160.42 70.7856Z" stroke="black" stroke-width="3" stroke-miterlimit="10"/>
<path d="M1155.99 91.813L1156.3 102.912L1155.87 91.8497L1170.84 87.2169M1155.99 91.813L1155.75 91.8865M1155.99 91.813L1155.31 72.3668L1160.42 70.7857L1170.84 87.2169M1170.84 87.2169L1171.08 87.1434M1170.84 87.2169L1176.85 96.5512M1179.49 50.8224L1128.17 66.7063L1144.06 118.028L1195.38 102.144L1179.49 50.8224Z" stroke="black" stroke-width="3" stroke-miterlimit="10"/>
</g>
<g clip-path="url(#clip1_555_171)">
<path d="M1212.66 115.34C1213.5 111.305 1214.33 107.271 1215.2 103.355C1220.5 80.0974 1225.8 56.84 1231.14 33.7014C1231.49 32.2924 1231.87 31.0022 1232.25 29.712C1233.38 30.012 1234.48 30.1931 1235.62 30.493C1236.36 30.7845 1237.18 30.9203 1237.92 31.2117C1237.58 32.6208 1237.27 34.1486 1236.92 35.5576C1235.97 39.6291 1234.98 43.5817 1234.03 47.6532C1233.38 50.1968 1232.89 52.8224 1232.37 55.3292C1231.1 60.9286 1229.84 66.5279 1228.54 72.0084C1227.11 78.3122 1225.68 84.616 1224.24 90.9198C1223.33 94.7168 1222.46 98.6327 1221.67 102.393C1221.03 104.937 1220.54 107.562 1219.89 110.106C1219.59 111.634 1219.28 113.161 1219.01 114.808C1218.1 114.828 1217.11 115.003 1216.21 115.023C1215.03 114.998 1213.95 115.722 1212.66 115.34Z" fill="#45AAB8"/>
<path d="M1249.67 33.8264C1246.84 46.1596 1244.06 58.6116 1241.15 71.1004C1237.76 86.2149 1234.36 101.329 1230.97 116.444C1230.96 116.837 1230.79 117.148 1230.63 117.46C1229.07 117.032 1227.53 117.117 1226.03 117.321C1225.88 117.239 1225.88 117.239 1225.72 117.157C1225.33 117.148 1224.81 117.177 1224.42 117.168C1224.59 116.857 1224.67 116.701 1224.83 116.39C1225.31 114.158 1225.79 111.925 1226.31 109.812C1227.23 105.621 1228.3 101.513 1229.22 97.3228C1230.18 92.8581 1231.18 88.5122 1232.14 84.0475C1232.79 81.1106 1233.56 78.1369 1234.22 75.2001C1235.47 69.994 1236.57 64.7059 1237.7 59.5367C1238.78 55.0352 1239.83 50.4148 1240.91 45.9133C1241.77 42.3907 1242.51 38.905 1243.22 35.3003C1243.48 34.4402 1243.58 33.498 1243.67 32.5559C1244.62 32.6549 1245.6 32.8728 1246.54 32.9718C1247.52 33.1897 1248.65 33.4897 1249.67 33.8264Z" fill="#047B8E"/>
<path d="M1252.87 20.2029C1252.83 20.4774 1252.83 20.4774 1252.74 20.633C1252.09 23.5699 1251.28 26.4247 1250.63 29.3616C1249.65 29.1437 1248.51 28.8438 1247.54 28.6259C1246.56 28.408 1245.7 28.1533 1244.68 27.8166C1244.76 27.661 1245 27.5874 1244.96 27.4686C1245.7 24.3761 1246.32 21.3204 1246.93 18.2647C1248.46 18.5731 1249.83 18.7995 1251.36 19.1079C1251.95 19.3173 1252.37 19.8379 1252.87 20.2029Z" fill="#055868"/>
<path d="M1233.25 25.3663C1233.29 25.0918 1233.22 24.8542 1233.38 24.5429C1234.04 21.6061 1234.77 18.5136 1235.43 15.5767C1235.98 15.6672 1236.52 15.7578 1236.92 15.7663C1237.23 15.9304 1237.42 16.1313 1237.7 16.1766C1238.83 16.4765 1239.93 16.6576 1241.06 16.9575C1240.66 19.0343 1240.23 20.9922 1239.83 23.069C1239.56 24.3224 1239.5 25.3834 1239.24 26.6368C1238.26 26.4189 1237.32 26.3199 1236.34 26.102C1235.21 25.802 1234.23 25.5842 1233.25 25.3663Z" fill="#388691"/>
<path d="M1226.03 117.321C1227.53 117.117 1229.1 117.151 1230.63 117.46C1230.47 117.771 1230.34 118.201 1230.17 118.512C1227.55 123.492 1224.89 128.353 1222.11 133.25C1221.04 135.273 1219.7 137.251 1218.63 139.274C1218.48 139.192 1218.44 139.073 1218.29 138.991C1218.61 138.368 1218.87 137.508 1219.11 137.041C1220.42 134.945 1220.95 132.438 1221.82 130.214C1222.78 127.835 1223.61 125.492 1224.45 123.149C1225.2 121.355 1225.91 119.443 1226.53 117.686C1226.34 117.485 1226.19 117.403 1226.03 117.321Z" fill="#E9C293"/>
<path d="M1212.66 115.34C1213.95 115.722 1215.03 114.998 1216.29 114.868C1216.18 116.203 1216.11 117.657 1216 118.993C1215.8 121.27 1215.67 123.393 1215.47 125.67C1215.26 127.948 1215.21 130.308 1215.16 132.667C1215.12 134.634 1215.07 136.6 1215.07 138.685C1214.83 138.759 1214.67 138.677 1214.44 138.75C1214.23 137.251 1214.03 135.751 1213.94 134.215C1213.49 128.106 1213.18 122.08 1212.73 115.971C1212.81 115.815 1212.73 115.578 1212.66 115.34Z" fill="#FCE2C0"/>
<path d="M1214.44 138.75C1214.67 138.677 1214.83 138.759 1215.07 138.685C1215.22 138.767 1215.38 138.849 1215.53 138.931C1216.05 138.903 1216.68 138.838 1217.23 138.929C1217.62 138.937 1217.89 138.982 1218.29 138.991C1218.44 139.073 1218.48 139.192 1218.63 139.274C1218.59 139.548 1218.54 139.823 1218.46 139.978C1217.72 141.379 1216.95 142.66 1216.21 144.061C1216.05 144.372 1215.57 144.519 1215.21 144.63C1215.1 144.666 1214.71 144.265 1214.64 144.027C1214.63 142.335 1214.59 140.524 1214.44 138.75Z" fill="#454444"/>
<path d="M1247.54 28.6258C1248.51 28.8437 1249.65 29.1436 1250.63 29.3615C1250.32 30.8894 1249.97 32.2984 1249.67 33.8263C1248.65 33.4895 1247.55 33.3084 1246.54 32.9717C1246.85 31.4439 1247.19 30.0348 1247.54 28.6258Z" fill="#BBBDBE"/>
<path d="M1233.25 25.366C1234.23 25.5839 1235.36 25.8839 1236.34 26.1018C1236.15 27.5928 1235.81 29.0019 1235.62 30.4929C1234.48 30.193 1233.38 30.0119 1232.25 29.712C1232.56 28.1841 1232.9 26.7751 1233.25 25.366Z" fill="#E4E6E6"/>
<path d="M1240.91 16.8753C1239.77 16.5754 1238.67 16.3943 1237.54 16.0944C1237.27 16.0491 1237.07 15.8482 1236.76 15.6841C1237.39 15.619 1238.02 15.554 1238.69 15.6077C1243.48 15.9474 1247.94 17.3027 1252.22 19.3626C1252.65 19.4899 1253.12 19.7361 1252.63 20.2765C1252.13 19.9115 1251.74 19.5097 1251.28 19.2636C1249.87 18.9183 1248.38 18.7287 1246.85 18.4203C1244.98 17.8289 1243.02 17.3932 1240.91 16.8753Z" fill="#104D58"/>
<path d="M1252.74 20.6352C1252.71 20.5152 1252.83 20.4784 1252.79 20.3585C1252.79 20.3585 1252.71 20.5152 1252.74 20.6352Z" fill="#104D58"/>
<path d="M1243.64 32.437C1243.54 33.3791 1243.4 34.2025 1243.19 35.1814C1242.44 38.6672 1241.62 42.3086 1240.87 45.7944C1239.79 50.2959 1238.75 54.9163 1237.67 59.4178C1236.41 64.6238 1235.32 69.9119 1234.18 75.0812C1233.53 78.018 1232.76 80.9917 1232.1 83.9286C1231.14 88.3933 1230.18 92.8581 1229.18 97.204C1228.26 101.394 1227.23 105.621 1226.27 109.693C1225.79 111.925 1225.31 114.158 1224.8 116.271C1224.75 116.545 1224.59 116.857 1224.38 117.049C1224.23 116.967 1223.99 117.041 1223.84 116.959C1222.92 115.68 1221.35 115.646 1220.02 115.145C1219.98 115.026 1219.98 115.026 1219.87 115.063C1219.55 114.899 1219.24 114.735 1219.05 114.534C1219.36 113.006 1219.63 111.359 1219.94 109.831C1220.43 107.206 1221.07 104.662 1221.72 102.118C1222.63 98.3214 1223.5 94.4056 1224.29 90.6454C1225.72 84.3415 1227.15 78.0377 1228.59 71.7339C1229.85 66.1346 1231.11 60.5352 1232.41 55.0548C1233.06 52.5112 1233.55 49.8855 1234.07 47.3787C1235.02 43.3072 1236.01 39.3546 1236.97 35.2832C1237.31 33.8741 1237.62 32.3463 1237.97 30.9373C1238.95 31.1551 1240.04 31.3362 1241.02 31.5541C1241.92 31.9276 1242.78 32.1823 1243.64 32.437Z" fill="#1A93A5"/>
<path d="M1219.09 114.653C1219.4 114.817 1219.71 114.981 1219.9 115.182C1219.73 115.886 1219.64 116.435 1219.47 117.14C1219.31 118.75 1219.28 120.323 1218.97 121.851C1218.61 124.046 1218.21 126.123 1217.81 128.2C1217.68 129.023 1217.54 129.846 1217.4 130.67C1217.23 131.374 1217.06 132.079 1216.89 132.783C1216.83 133.451 1216.93 134.201 1216.76 134.905C1216.42 136.314 1215.92 137.641 1215.57 139.05C1215.42 138.968 1215.26 138.886 1215.1 138.804C1215.15 136.838 1215.15 134.752 1215.19 132.786C1215.25 130.426 1215.45 128.149 1215.5 125.789C1215.59 123.548 1215.83 121.389 1216.04 119.112C1216.15 117.776 1216.22 116.322 1216.33 114.986C1217.19 114.848 1218.1 114.828 1219.09 114.653Z" fill="#FDD5A5"/>
<path d="M1240.94 31.7098C1239.96 31.4919 1238.86 31.3108 1237.88 31.093C1237.14 30.8015 1236.32 30.6657 1235.58 30.3742C1235.77 28.8832 1236.11 27.4741 1236.3 25.9831C1237.28 26.2009 1238.22 26.3 1239.2 26.5179C1240.06 26.7725 1241.04 26.9904 1241.9 27.2451C1241.59 28.7729 1241.25 30.182 1240.94 31.7098Z" fill="#DBDDDE"/>
<path d="M1223.87 117.077C1224.03 117.159 1224.27 117.086 1224.42 117.168C1224.81 117.176 1225.33 117.148 1225.72 117.157C1225.88 117.239 1225.88 117.239 1226.03 117.321C1226.19 117.403 1226.5 117.567 1226.69 117.768C1225.94 119.562 1225.2 121.355 1224.61 123.231C1223.77 125.574 1222.97 128.036 1221.97 130.296C1220.98 132.557 1220.57 135.027 1219.27 137.123C1218.91 137.627 1218.77 138.45 1218.44 139.073C1218.05 139.064 1217.77 139.019 1217.38 139.011C1218.14 136.43 1218.95 133.969 1219.71 131.388C1220.35 129.238 1220.95 126.969 1221.43 124.736C1222.14 122.431 1222.71 120.043 1223.43 117.737C1223.47 117.462 1223.67 117.27 1223.87 117.077Z" fill="#F1C793"/>
<path d="M1240.94 31.7098C1241.28 30.3007 1241.59 28.7729 1241.94 27.3638C1242.88 27.4629 1243.74 27.7176 1244.68 27.8166C1245.66 28.0345 1246.52 28.2892 1247.54 28.6259C1247.19 30.0349 1246.88 31.5628 1246.54 32.9718C1245.6 32.8727 1244.62 32.6548 1243.67 32.5558C1242.78 32.1823 1241.92 31.9276 1240.94 31.7098Z" fill="#CFD1D2"/>
<path d="M1226.03 117.323C1225.88 117.24 1225.88 117.24 1225.72 117.157C1225.76 117.277 1225.88 117.24 1226.03 117.323Z" fill="#E9C293"/>
<path d="M1244.68 27.8168C1243.74 27.7177 1242.88 27.463 1241.94 27.364C1241.08 27.1093 1240.1 26.8915 1239.24 26.6368C1239.38 25.4202 1239.53 24.2035 1239.83 23.069C1240.23 20.9922 1240.66 19.0343 1241.06 16.9575C1243.06 17.5121 1245.13 17.9111 1247.13 18.4657C1246.51 21.5214 1245.77 24.6139 1245.16 27.6696C1245.04 27.7064 1244.8 27.78 1244.68 27.8168Z" fill="#14707F"/>
<path d="M1223.87 117.077C1223.67 117.27 1223.47 117.462 1223.39 117.618C1222.67 119.924 1221.95 122.23 1221.39 124.618C1220.75 126.768 1220.27 129 1219.67 131.27C1218.91 133.85 1218.11 136.311 1217.34 138.892C1216.83 138.92 1216.2 138.985 1215.65 138.895C1216 137.486 1216.5 136.159 1216.84 134.75C1217.02 134.045 1216.91 133.295 1216.97 132.628C1217.02 131.96 1217.31 131.219 1217.49 130.514C1217.62 129.691 1217.76 128.867 1217.89 128.044C1218.29 125.967 1218.77 123.735 1219.05 121.695C1219.36 120.167 1219.4 118.594 1219.55 116.984C1219.6 116.316 1219.81 115.731 1219.98 115.026L1220.14 115.108C1221.42 115.883 1222.96 115.799 1223.87 117.077Z" fill="#FCD19C"/>
<path d="M1220.06 115.267L1219.9 115.182C1220.02 115.145 1220.06 115.267 1220.06 115.267Z" fill="#FDD5A5"/>
</g>
<g clip-path="url(#clip2_555_171)">
<path d="M117.931 167.515C110.523 162.801 101.639 160.556 92.9399 160.943C71.02 161.854 51.8693 178.437 50.4434 202.258C49.972 210.961 51.9637 219.996 56.4099 227.644C60.9125 235.12 67.754 240.982 75.6725 244.72C83.5331 248.345 92.4708 249.845 101.108 248.485C109.745 247.125 117.853 243.02 124.177 237.092C130.501 231.164 135.27 223.298 137.289 214.816C139.419 205.989 138.457 196.721 134.923 188.324C131.617 179.811 125.627 172.514 117.931 167.515Z" fill="#FF986D"/>
<path d="M143.536 170.763C141.408 168.828 138.492 169.587 136.151 170.629C133.124 172.018 130.326 173.578 127.531 175.423C127.417 175.481 127.302 175.539 127.302 175.539C127.36 175.653 127.476 175.882 127.534 175.996C127.592 176.11 127.764 176.166 127.821 176.281C127.879 176.395 128.109 176.565 128.167 176.68C129.137 176.045 130.165 175.525 131.135 174.89C133.246 173.677 135.645 172.463 137.988 171.707C138.845 171.417 139.988 171.125 140.848 171.407C141.709 171.689 142.284 172.258 142.689 173.057C143.614 174.885 143.223 176.947 142.201 178.613C141.067 180.622 139.53 182.404 137.993 184.186C136.4 186.141 134.749 187.981 133.099 189.821C129.797 193.501 126.38 196.953 122.79 200.348C115.612 207.139 107.8 213.246 99.6991 218.783C91.4263 224.262 82.6923 229.115 73.7257 233.224C69.1563 235.251 64.6434 237.105 59.9006 238.789C57.8436 239.544 55.9008 240.24 53.6703 240.652C52.1265 241.003 50.1808 241.128 48.6891 240.448C48.1152 240.165 47.6555 239.824 47.4243 239.367C46.9588 237.881 46.9516 236.45 47.5733 234.844C48.0792 233.01 48.9871 231.402 49.8371 229.681C50.291 228.877 50.6871 227.959 51.1974 226.983C51.5935 226.065 52.2194 225.318 52.7875 224.456C53.2992 223.767 53.6968 223.135 54.2085 222.446C54.035 222.103 53.8038 221.646 53.6303 221.304C53.4019 221.419 53.2314 221.649 53.003 221.765C51.8624 222.629 50.9517 223.664 49.9268 224.757C48.9019 225.85 47.877 226.943 47.1398 228.32C46.3447 229.584 45.7795 231.018 45.1564 232.337C44.0245 234.919 43.1253 238.244 45.4265 240.522C46.0596 241.206 47.0368 242.002 48.0689 242.34C49.101 242.679 50.1894 242.845 51.2765 242.725C53.6804 242.656 56.0236 241.9 58.2526 241.202C61.1668 240.156 64.081 239.111 66.9952 238.066C72.5937 235.806 78.1909 233.259 83.5582 230.541C94.4633 224.877 104.734 218.242 114.312 210.523C123.776 202.862 132.491 194.289 140.287 185.034C142.051 182.849 144.215 180.606 145.175 177.968C145.792 175.503 145.434 172.528 143.536 170.763Z" fill="black"/>
<path d="M85.8334 170.71C85.7178 170.482 85.488 170.311 85.2581 170.141C85.0861 170.084 84.9141 170.028 84.6843 169.857C84.3402 169.744 83.882 169.689 83.5394 169.863C83.311 169.979 83.1968 170.036 82.9106 170.038C82.568 170.211 82.2833 170.499 81.9985 170.787C81.8843 170.844 81.8279 171.016 81.7137 171.074C81.5431 171.304 81.4304 171.648 81.374 171.82C81.2612 172.164 81.2627 172.45 81.3783 172.679C81.3797 172.965 81.5532 173.308 81.783 173.478C81.8987 173.707 82.1285 173.877 82.3583 174.048C82.5303 174.104 82.7024 174.16 82.9322 174.331C83.2762 174.444 83.7344 174.499 84.077 174.325C84.3054 174.21 84.4196 174.152 84.7058 174.15C85.0484 173.977 85.3332 173.689 85.618 173.402C85.7322 173.344 85.7886 173.172 85.9028 173.114C86.0733 172.884 86.1861 172.54 86.2425 172.368C86.3552 172.024 86.3538 171.738 86.2382 171.509C86.0647 171.167 85.9491 170.938 85.8334 170.71Z" fill="#E6EAEC"/>
<path d="M81.985 190.879C79.4726 192.151 81.4962 196.148 84.0086 194.876C86.6351 193.546 84.6115 189.549 81.985 190.879Z" fill="#E6EAEC"/>
<path d="M102.175 176.066C100.005 177.165 101.682 180.476 103.852 179.378C106.079 178.393 104.345 174.967 102.175 176.066Z" fill="#E6EAEC"/>
<path d="M110.499 192.224C110.096 191.711 109.464 191.314 108.834 191.202C108.146 190.977 107.574 190.98 106.887 191.04C106.258 191.215 105.573 191.562 105.06 191.965L104.946 192.023C104.432 192.427 104.035 193.058 103.809 193.746C103.584 194.434 103.473 195.065 103.705 195.808C103.938 196.551 104.227 197.122 104.688 197.749C105.091 198.262 105.723 198.66 106.411 198.885C107.099 199.111 107.729 199.222 108.472 198.989C109.215 198.757 109.786 198.467 110.414 198.006C110.927 197.603 111.325 196.971 111.55 196.283C111.776 195.595 111.887 194.965 111.654 194.222L111.596 194.108C111.249 193.423 110.903 192.737 110.499 192.224Z" fill="#E6EAEC"/>
<path d="M92.093 208.86C91.8054 208.576 91.4035 208.349 91.0595 208.236C90.8875 208.18 90.6013 208.181 90.4293 208.125C89.971 208.07 89.5706 208.129 89.1138 208.36C88.7712 208.534 88.5428 208.649 88.4301 208.993C88.2595 209.223 88.0889 209.453 87.9762 209.797C87.8634 210.141 87.8649 210.427 87.8663 210.713C87.8677 211 87.927 211.4 88.0426 211.628C88.1583 211.857 88.2161 211.971 88.4459 212.142C88.7336 212.426 89.1354 212.653 89.4794 212.766C89.6515 212.823 89.9377 212.821 90.1097 212.877C90.5679 212.932 90.9683 212.873 91.4251 212.642C91.7677 212.468 91.9961 212.353 92.1089 212.009C92.2794 211.779 92.45 211.549 92.5628 211.205C92.6755 210.861 92.6741 210.575 92.6727 210.289C92.6712 210.002 92.5556 209.774 92.3821 209.431C92.3243 209.317 92.2087 209.089 92.093 208.86Z" fill="#E6EAEC"/>
<path d="M125.509 206.002C119.685 208.951 124.253 217.972 130.077 215.023C135.901 212.075 131.333 203.053 125.509 206.002Z" fill="#E6EAEC"/>
<path d="M112.188 220.781C111.901 220.496 111.671 220.325 111.327 220.212C111.155 220.156 110.983 220.1 110.811 220.043C110.41 220.103 110.124 220.104 109.782 220.277C109.553 220.393 109.325 220.509 109.154 220.739C108.984 220.968 108.813 221.198 108.757 221.37C108.586 221.6 108.588 221.886 108.703 222.115C108.705 222.401 108.706 222.687 108.936 222.858C108.994 222.972 109.109 223.2 109.281 223.257C109.569 223.541 109.799 223.712 110.143 223.825C110.315 223.881 110.487 223.938 110.659 223.994C111.059 223.935 111.346 223.933 111.688 223.76C111.917 223.644 112.145 223.529 112.316 223.299C112.486 223.069 112.657 222.839 112.713 222.667C112.884 222.437 112.882 222.151 112.767 221.923C112.765 221.636 112.764 221.35 112.534 221.18C112.418 220.951 112.36 220.837 112.188 220.781Z" fill="#E6EAEC"/>
<path d="M123.852 183.742C123.506 183.343 123.104 183.116 122.588 182.947C122.416 182.891 122.13 182.892 121.958 182.836C121.5 182.781 120.985 182.898 120.529 183.129C120.186 183.303 119.901 183.59 119.731 183.82C119.446 184.108 119.275 184.338 119.22 184.796C119.108 185.14 118.995 185.484 119.054 185.884C119.113 186.285 119.115 186.571 119.288 186.914C119.404 187.142 119.634 187.313 119.749 187.541C120.095 187.94 120.497 188.167 121.013 188.336C121.185 188.393 121.471 188.391 121.643 188.447C122.101 188.502 122.616 188.385 123.073 188.154C123.415 187.981 123.7 187.693 123.87 187.463C124.155 187.175 124.326 186.946 124.381 186.487C124.493 186.143 124.606 185.799 124.547 185.399C124.488 184.999 124.314 184.656 124.141 184.313C124.025 184.085 123.967 183.971 123.852 183.742Z" fill="#E6EAEC"/>
<path d="M70.2689 194.659C68.556 195.526 69.8858 198.153 71.5987 197.285C73.3117 196.418 71.9819 193.792 70.2689 194.659Z" fill="#E6EAEC"/>
<path d="M91.384 181.673C91.1541 181.502 90.9243 181.332 90.7523 181.275C90.5803 181.219 90.4661 181.277 90.4082 181.163C90.122 181.164 89.8358 181.165 89.6074 181.281C89.379 181.397 89.2648 181.455 89.0943 181.684C88.8659 181.8 88.8095 181.972 88.8109 182.258C88.7545 182.43 88.6982 182.602 88.6996 182.888C88.6432 183.06 88.7589 183.289 88.8745 183.517C88.9323 183.631 88.9901 183.746 89.048 183.86C89.2778 184.03 89.5076 184.201 89.6796 184.257L90.0237 184.37C90.3099 184.369 90.5961 184.367 90.8245 184.252C91.0529 184.136 91.1671 184.078 91.3377 183.848C91.566 183.733 91.6224 183.561 91.621 183.275C91.6774 183.102 91.7337 182.93 91.7323 182.644C91.7887 182.472 91.6731 182.244 91.5574 182.015C91.4996 181.901 91.4418 181.787 91.384 181.673Z" fill="#E6EAEC"/>
<path d="M103.292 204.625C101.236 205.666 102.797 208.749 104.853 207.709C106.966 206.782 105.347 203.584 103.292 204.625Z" fill="#E6EAEC"/>
<path d="M96.9175 234.825C96.2844 234.141 95.4229 233.573 94.5628 233.291C94.1046 233.236 93.5885 233.067 93.1303 233.012C92.0997 232.96 91.1846 233.136 90.2711 233.599C89.5859 233.946 88.9585 234.407 88.561 235.039C88.1056 235.556 87.7081 236.188 87.4826 236.876C87.2571 237.564 87.2036 238.308 87.2642 238.995C87.2107 239.739 87.4435 240.482 87.7904 241.168C88.1358 241.566 88.3671 242.023 88.7126 242.422C89.3457 243.106 90.2072 243.674 91.0673 243.956C91.5255 244.011 92.0416 244.18 92.4998 244.235C93.5304 244.287 94.4455 244.111 95.359 243.648C96.0442 243.301 96.6716 242.84 97.0691 242.209C97.5245 241.691 97.922 241.059 98.1475 240.371C98.3731 239.683 98.4266 238.939 98.3659 238.252C98.4194 237.508 98.1867 236.765 97.8397 236.08C97.4943 235.681 97.1488 235.282 96.9175 234.825Z" fill="#E6EAEC"/>
<path d="M38.9167 209.528L34.4601 211.211L33.3382 215.796L30.4574 212.089L25.651 212.514L28.2068 208.494L26.468 204.21L31.0531 205.332L34.7017 202.337L34.9545 207.087L38.9167 209.528Z" fill="black"/>
<path d="M100.062 142.99L94.1532 140.386L88.8466 143.79L89.3874 137.49L84.4438 133.394L90.7333 131.931L93.0506 126.023L96.2841 131.56L102.64 131.928L98.4855 136.758L100.062 142.99Z" fill="black"/>
<path d="M160.539 205.196L156.709 206.417L155.583 210.144L153.22 206.893L149.271 207.027L151.659 203.81L150.323 200.038L154.108 201.279L157.359 198.915L157.321 202.808L160.539 205.196Z" fill="black"/>
</g>
<defs>
<clipPath id="clip0_555_171">
<rect width="124.359" height="124.359" fill="white" transform="translate(1093.52 74.1785) rotate(-17.1973)"/>
</clipPath>
<clipPath id="clip1_555_171">
<rect width="124.362" height="124.393" fill="white" transform="matrix(0.955267 -0.295744 0.295582 0.955317 1154.53 36.8462)"/>
</clipPath>
<clipPath id="clip2_555_171">
<rect width="128" height="128" fill="white" transform="translate(0 165.818) rotate(-26.853)"/>
</clipPath>
</defs>
</svg>
